####
#
# OBJ File Generated by Meshlab
#
####
# Object actual_cube.obj
#
# Vertices: 9
# Faces: 14
#
####
vn -0.895286 1.351022 0.895285
v 0.000100 2.000025 2.000100
vn -0.895286 1.351022 -0.895286
v 0.000100 2.000025 0.000100
vn -1.570796 -1.570796 1.570796
v 0.000100 0.000025 2.000100
vn -1.570796 -1.570796 -1.570796
v 0.000100 0.000025 0.000100
vn 0.895286 1.351022 0.895286
v 2.000100 2.000025 2.000100
vn 1.570796 -1.570796 1.570796
v 2.000100 0.000025 2.000100
vn 0.895286 1.351022 -0.895285
v 2.000100 2.000025 0.000100
vn 1.570796 -1.570796 -1.570796
v 2.000100 0.000025 0.000100
vn 0.000000 3.481679 0.000000
v 1.000100 1.000025 1.000100
# 9 vertices, 0 vertices normals

f 1//1 2//2 3//3
f 3//3 2//2 4//4
f 5//5 1//1 6//6
f 6//6 1//1 3//3
f 7//7 5//5 8//8
f 8//8 5//5 6//6
f 2//2 7//7 4//4
f 4//4 7//7 8//8
f 8//8 6//6 4//4
f 4//4 6//6 3//3
f 9//9 2//2 1//1
f 9//9 7//7 2//2
f 9//9 1//1 5//5
f 9//9 5//5 7//7
# 14 faces, 0 coords texture

# End of File
